<svg xmlns="http://www.w3.org/2000/svg" viewBox="0 0 1024 1024" role="img" aria-label="NFG Hangman app icon">
  <defs>
    <linearGradient id="bg" x1="0" y1="0" x2="1" y2="1">
      <stop offset="0%" stop-color="#0b1020"/>
      <stop offset="100%" stop-color="#151b33"/>
    </linearGradient>
    <linearGradient id="nfg" x1="0%" y1="0%" x2="100%" y2="0%">
      <stop offset="0%" stop-color="#7c3aed"/>
      <stop offset="50%" stop-color="#d946ef"/>
      <stop offset="100%" stop-color="#ec4899"/>
    </linearGradient>
    <filter id="glowP" x="-20%" y="-20%" width="140%" height="140%">
      <feGaussianBlur stdDeviation="8"/>
    </filter>
    <filter id="glowC" x="-20%" y="-20%" width="140%" height="140%">
      <feGaussianBlur stdDeviation="6"/>
    </filter>
  </defs>
  <rect width="1024" height="1024" rx="220" fill="url(#bg)"/>
  <ellipse cx="820" cy="180" rx="280" ry="200" fill="#a78bfa" opacity="0.12"/>
  <g transform="translate(512 420)">
    <g filter="url(#glowP)">
      <text text-anchor="middle" y="20" font-family="Segoe UI, Inter, Arial Black, sans-serif" font-size="220" font-weight="900" font-style="italic" fill="url(#nfg)" stroke="#1e1038" stroke-width="6">NFG</text>
      <text text-anchor="middle" y="16" font-family="Segoe UI, Inter, Arial Black, sans-serif" font-size="220" font-weight="900" font-style="italic" fill="#f8fafc">NFG</text>
    </g>
    <g transform="translate(0 200)" filter="url(#glowC)" stroke="#67e8f9" stroke-width="14" stroke-linecap="round" fill="none">
      <path d="M-120 120 L-120 -40 L80 -40"/>
      <path d="M80 -40 L80 -8"/>
      <circle cx="80" cy="8" r="18" fill="#67e8f9" stroke="none"/>
      <path d="M80 26 L80 70 M80 48 L40 100 M80 48 L120 100 M80 70 L52 130 M80 70 L108 130"/>
      <path d="M130 150 h140" stroke-width="10" opacity="0.9"/>
    </g>
  </g>
</svg>
